Coordinates
version=1
nRows=9
nColumns=36
inDegrees=yes

Units are S.I. units (second, meters, Newtons, ...)
If the header above contains a line with 'inDegrees', this indicates whether rotational values are in degrees (yes) or radians (no).

endheader
time	pelvis_tilt	pelvis_list	pelvis_rotation	pelvis_tx	pelvis_ty	pelvis_tz	hip_flexion_r	hip_adduction_r	hip_rotation_r	knee_angle_r	knee_angle_r_beta	ankle_angle_r	subtalar_angle_r	mtp_angle_r	hip_flexion_l	hip_adduction_l	hip_rotation_l	knee_angle_l	knee_angle_l_beta	ankle_angle_l	subtalar_angle_l	mtp_angle_l	lumbar_extension	lumbar_bending	lumbar_rotation	arm_flex_r	arm_add_r	arm_rot_r	elbow_flex_r	pro_sup_r	arm_flex_l	arm_add_l	arm_rot_l	elbow_flex_l	pro_sup_l
      1.73333330	    -10.27921792	     -1.86808565	    -10.59269092	      0.29032449	      0.93358838	     -0.05574914	     12.71043400	     -1.92858162	      1.51374809	      4.40478425	      0.07687799	      2.63048511	     -7.68299531	     -7.49999657	     10.90526002	    -11.09179153	     -2.11807508	      8.63996283	      0.15079580	      7.25251868	     -7.10271138	     -7.49999657	      3.84008306	      2.67053841	      1.54846009	     77.72001798	      3.07306926	     67.77937905	    113.02529155	     80.72214370	     70.59476025	     -1.47688580	     65.13737357	    112.43072461	     77.95119581
      1.75000000	    -10.30687193	     -1.93246270	    -10.43598843	      0.28984146	      0.93026167	     -0.05573461	     12.78931522	     -1.87273596	      1.54552643	      4.51702431	      0.07883695	      2.66074827	     -7.91329118	     -7.49999714	     11.10075452	    -11.16714214	     -1.95364665	      8.85384091	      0.15452868	      7.22916729	     -7.28618142	     -7.49999714	      3.36766635	      2.76580296	      1.42744538	     79.10334948	      4.08196627	     69.27297522	    112.73567536	     79.11098353	     71.44971529	     -0.87827800	     64.40866470	    111.61798465	     76.30466759
      1.76666670	    -10.38474736	     -1.94978257	    -10.31376497	      0.29014405	      0.93059102	     -0.05572265	     12.93774321	     -1.85213993	      1.54460322	      4.64509831	      0.08107226	      2.80782807	     -7.98345237	     -7.49999750	     11.44631176	    -11.18671026	     -1.74873804	      9.16611500	      0.15997889	      7.30136396	     -7.54089675	     -7.49999750	      3.17778464	      2.77381864	      1.99302705	     79.88990443	      4.06253915	     69.62768244	    111.56334957	     77.95769679	     71.68733280	     -0.38753365	     63.61321425	    109.55835192	     75.15525838
      1.78333330	    -10.56720392	     -2.01016470	    -10.16892434	      0.28996673	      0.92703715	     -0.05556404	     13.26978958	     -1.76650755	      1.52390584	      4.97459162	      0.08682300	      3.01147870	     -8.18335717	     -7.49999782	     12.03593513	    -11.30876789	     -1.60512683	      9.68726898	      0.16907474	      7.54005789	     -7.59514301	     -7.49999782	      3.08028713	      2.76052921	      2.04595554	     80.45184162	      3.66711437	     69.40357613	    110.22945678	     76.57184165	     72.45909960	     -0.21886911	     63.57898232	    108.36779938	     73.94382187
      1.80000000	    -10.77200017	     -2.04170823	    -10.07278325	      0.29027117	      0.92416382	     -0.05520515	     13.75896629	     -1.70350938	      1.53093646	      5.52772112	      0.09647693	      3.34648461	     -8.40713465	     -7.49999876	     12.82313672	    -11.42107860	     -1.44744055	     10.50508721	      0.18334836	      7.90295729	     -7.66409287	     -7.49999876	      3.28300174	      2.75576374	      1.55657073	     80.10045322	      3.79599849	     68.57347270	    111.82474016	     81.96986706	     72.57632149	     -0.91204445	     63.98385490	    110.79599565	     78.23070977
      1.81666670	    -10.97287504	     -2.10971224	     -9.87117438	      0.28377861	      0.92319989	     -0.06180930	     14.50601692	     -1.70494819	      1.42369574	      6.48987092	      0.11326962	      3.79236806	     -8.65469960	     -7.49999878	     13.91629097	    -11.55139983	     -1.14925635	     11.66362278	      0.20356862	      8.40843837	     -7.69106114	     -7.49999878	      2.94419943	      2.90664188	      1.07704596	     80.19874678	      3.36116436	     67.61318213	    111.92238361	     81.91694993	     72.75325207	     -0.95870538	     63.64462918	    110.79608869	     78.32803484
      1.83333330	    -11.54668623	     -2.08036281	     -9.69648469	      0.27826123	      0.92242633	     -0.06811420	     16.09366155	     -1.81268666	      1.26833638	      8.14918651	      0.14223014	      4.43681362	     -8.85873113	     -7.49999882	     15.68827947	    -11.61798134	     -0.93086002	     13.24391445	      0.23114991	      9.14374027	     -7.67668102	     -7.49999882	      2.99038128	      2.92082265	     -0.02257574	     79.23387660	      3.18418312	     67.43930393	    109.61910985	     81.89386378	     73.35734402	     -1.93709260	     64.21592103	    111.66991039	     78.62535710
      1.85000000	    -11.91794125	     -2.12351484	     -9.42670501	      0.27857289	      0.91483468	     -0.06805770	     17.64499214	     -1.95873572	      1.00235098	     10.19490628	      0.17793468	      5.28167787	     -9.08000629	     -7.49999893	     17.46648710	    -11.71076218	     -0.66861847	     15.18384804	      0.26500814	      9.91718385	     -7.75478422	     -7.49999893	      2.49715083	      3.06227486	     -1.15534811	     79.57311665	      4.87250122	     68.43780739	    107.58828180	     80.19315227	     74.47783726	     -1.97841223	     63.19396860	    110.17480808	     77.19095239
      1.86666670	    -12.49731791	     -2.13497685	     -9.23506300	      0.27294409	      0.91419481	     -0.06609344	     19.81356685	     -2.10126371	      0.73675574	     12.89647601	      0.22508597	      6.38611695	     -8.97762717	     -7.49999897	     19.59850215	    -11.85637521	     -0.49794197	     17.28639025	      0.30170443	     10.83309788	     -7.77313828	     -7.49999897	      2.35264295	      3.40829891	     -2.09276557	     79.36329269	      5.62289334	     69.71218504	    104.02996099	     80.42443226	     74.09831430	     -2.83692043	     62.54113151	    107.43494696	     77.68203809
